<?xml version="1.0" encoding="UTF-8" standalone="no" ?>
<!DOCTYPE svg PUBLIC "-//W3C//DTD SVG 1.1//EN" "http://www.w3.org/Graphics/SVG/1.1/DTD/svg11.dtd">
<svg xmlns="http://www.w3.org/2000/svg" xmlns:xlink="http://www.w3.org/1999/xlink" version="1.1" width="1080" height="1080" viewBox="0 0 1080 1080" xml:space="preserve">
<desc>Created with Fabric.js 5.2.4</desc>
<defs>
</defs>
<g transform="matrix(1 0 0 1 540 540)" id="be6a1947-6aff-46ff-9a2f-0c3b6fe4a51e"  >
<rect style="stroke: none; stroke-width: 1; stroke-dasharray: none; stroke-linecap: butt; stroke-dashoffset: 0; stroke-linejoin: miter; stroke-miterlimit: 4; fill: rgb(255,255,255); fill-rule: nonzero; opacity: 1; visibility: hidden;" vector-effect="non-scaling-stroke"  x="-540" y="-540" rx="0" ry="0" width="1080" height="1080" />
</g>
<g transform="matrix(1 0 0 1 540 540)" id="983b3699-23de-42c3-a75e-6dc163461daa"  >
</g>
<g transform="matrix(1 0 0 1 540 540)" id="04128812-54fb-4189-891d-4d51b570028f"  >
<path style="stroke: rgb(54,97,237); stroke-width: 0; stroke-dasharray: none; stroke-linecap: butt; stroke-dashoffset: 0; stroke-linejoin: miter; stroke-miterlimit: 4; fill: rgb(54,97,237); fill-rule: nonzero; opacity: 1;" vector-effect="non-scaling-stroke"  transform=" translate(-2708.07, -1558.34)" d="M 2675.03 1284.87 L 2675.03 1553.78 C 2675.03 1756.61 2504.11 1831.81 2504.11 1831.81 L 2490.44 1809.02 C 2490.44 1809.02 2592.9900000000002 1704.19 2574.76 1601.6399999999999 L 2358.26 1601.6399999999999 L 2358.26 1284.87 L 2675.03 1284.87 Z M 3057.89 1284.87 L 3057.89 1553.78 C 3057.89 1756.61 2886.97 1831.81 2886.97 1831.81 L 2873.2999999999997 1809.02 C 2873.2999999999997 1809.02 2975.85 1704.19 2957.62 1601.6399999999999 L 2741.12 1601.6399999999999 L 2741.12 1284.87 L 3057.89 1284.87 Z" stroke-linecap="round" />
</g>
<g transform="matrix(NaN NaN NaN NaN 0 0)"  >
<g style=""   >
</g>
</g>
<g transform="matrix(NaN NaN NaN NaN 0 0)"  >
<g style=""   >
</g>
</g>
<g transform="matrix(NaN NaN NaN NaN 0 0)"  >
<g style=""   >
</g>
</g>
<g transform="matrix(NaN NaN NaN NaN 0 0)"  >
<g style=""   >
</g>
</g>
</svg>